<svg width="45" height="45" viewBox="0 0 82 82" fill="none" xmlns="http://www.w3.org/2000/svg">
<path d="M73.0312 15.375H26.2656C25.9133 15.375 25.625 15.6633 25.625 16.0156V20.5C25.625 20.8523 25.9133 21.1406 26.2656 21.1406H73.0312C73.3836 21.1406 73.6719 20.8523 73.6719 20.5V16.0156C73.6719 15.6633 73.3836 15.375 73.0312 15.375ZM73.0312 38.1172H26.2656C25.9133 38.1172 25.625 38.4055 25.625 38.7578V43.2422C25.625 43.5945 25.9133 43.8828 26.2656 43.8828H73.0312C73.3836 43.8828 73.6719 43.5945 73.6719 43.2422V38.7578C73.6719 38.4055 73.3836 38.1172 73.0312 38.1172ZM73.0312 60.8594H26.2656C25.9133 60.8594 25.625 61.1477 25.625 61.5V65.9844C25.625 66.3367 25.9133 66.625 26.2656 66.625H73.0312C73.3836 66.625 73.6719 66.3367 73.6719 65.9844V61.5C73.6719 61.1477 73.3836 60.8594 73.0312 60.8594ZM8.32812 18.2578C8.32812 18.8467 8.44412 19.4298 8.66948 19.9739C8.89484 20.518 9.22516 21.0123 9.64157 21.4287C10.058 21.8452 10.5523 22.1755 11.0964 22.4008C11.6405 22.6262 12.2236 22.7422 12.8125 22.7422C13.4014 22.7422 13.9845 22.6262 14.5286 22.4008C15.0727 22.1755 15.567 21.8452 15.9834 21.4287C16.3998 21.0123 16.7302 20.518 16.9555 19.9739C17.1809 19.4298 17.2969 18.8467 17.2969 18.2578C17.2969 17.6689 17.1809 17.0858 16.9555 16.5417C16.7302 15.9976 16.3998 15.5033 15.9834 15.0869C15.567 14.6705 15.0727 14.3402 14.5286 14.1148C13.9845 13.8894 13.4014 13.7734 12.8125 13.7734C12.2236 13.7734 11.6405 13.8894 11.0964 14.1148C10.5523 14.3402 10.058 14.6705 9.64157 15.0869C9.22516 15.5033 8.89484 15.9976 8.66948 16.5417C8.44412 17.0858 8.32812 17.6689 8.32812 18.2578V18.2578ZM8.32812 41C8.32812 41.5889 8.44412 42.172 8.66948 42.7161C8.89484 43.2602 9.22516 43.7545 9.64157 44.1709C10.058 44.5873 10.5523 44.9177 11.0964 45.143C11.6405 45.3684 12.2236 45.4844 12.8125 45.4844C13.4014 45.4844 13.9845 45.3684 14.5286 45.143C15.0727 44.9177 15.567 44.5873 15.9834 44.1709C16.3998 43.7545 16.7302 43.2602 16.9555 42.7161C17.1809 42.172 17.2969 41.5889 17.2969 41C17.2969 40.4111 17.1809 39.828 16.9555 39.2839C16.7302 38.7398 16.3998 38.2455 15.9834 37.8291C15.567 37.4127 15.0727 37.0823 14.5286 36.857C13.9845 36.6316 13.4014 36.5156 12.8125 36.5156C12.2236 36.5156 11.6405 36.6316 11.0964 36.857C10.5523 37.0823 10.058 37.4127 9.64157 37.8291C9.22516 38.2455 8.89484 38.7398 8.66948 39.2839C8.44412 39.828 8.32812 40.4111 8.32812 41V41ZM8.32812 63.7422C8.32812 64.3311 8.44412 64.9142 8.66948 65.4583C8.89484 66.0024 9.22516 66.4967 9.64157 66.9131C10.058 67.3295 10.5523 67.6598 11.0964 67.8852C11.6405 68.1106 12.2236 68.2266 12.8125 68.2266C13.4014 68.2266 13.9845 68.1106 14.5286 67.8852C15.0727 67.6598 15.567 67.3295 15.9834 66.9131C16.3998 66.4967 16.7302 66.0024 16.9555 65.4583C17.1809 64.9142 17.2969 64.3311 17.2969 63.7422C17.2969 63.1533 17.1809 62.5702 16.9555 62.0261C16.7302 61.482 16.3998 60.9877 15.9834 60.5713C15.567 60.1548 15.0727 59.8245 14.5286 59.5992C13.9845 59.3738 13.4014 59.2578 12.8125 59.2578C12.2236 59.2578 11.6405 59.3738 11.0964 59.5992C10.5523 59.8245 10.058 60.1548 9.64157 60.5713C9.22516 60.9877 8.89484 61.482 8.66948 62.0261C8.44412 62.5702 8.32812 63.1533 8.32812 63.7422V63.7422Z" fill="white"/>
</svg>
