<svg width="45" height="45" viewBox="0 0 82 82" fill="none" xmlns="http://www.w3.org/2000/svg">
<g clip-path="url(#clip0_308_44)">
<path d="M68.1732 8.31901H47.6732V28.819H68.1732V8.31901ZM13.5065 8.31901V28.819H34.0065V8.31901H13.5065ZM34.0065 45.9023H27.1732V39.069H34.0065V32.2357H27.1732V39.069H20.3398V32.2357H13.5065V39.069H20.3398V45.9023H13.5065V56.1523H20.3398V62.9857H27.1732L20.7994 62.3915L44.2565 49.319L37.4232 62.9857H44.2565V49.319L20.7994 62.3915L34.0065 45.9023ZM27.1732 45.9023L20.7994 62.3915L20.3398 56.1523V45.9023H27.1732ZM68.1732 62.9857V42.4857H47.6732V62.9857H68.1732ZM61.3398 15.1523V21.9857L47.6732 28.819L54.5065 15.1523H61.3398ZM34.0065 8.31901L27.1732 21.9857H20.3398V15.1523L34.0065 8.31901ZM61.3398 49.319V56.1523H54.5065L47.6732 42.4857L61.3398 49.319ZM68.1732 32.2357H61.3398V39.069H68.1732V32.2357ZM51.0898 32.2357H37.4232V45.9023H44.2565L37.4232 32.2357L51.0898 39.069V32.2357ZM44.2565 15.1523H37.4232V28.819H44.2565V15.1523ZM75.0065 1.48568V15.1523H81.8398V1.48568C81.8398 -0.326636 81.1199 -2.06472 79.8384 -3.34622C78.5569 -4.62772 76.8188 -5.34766 75.0065 -5.34766H61.3398V1.48568H75.0065ZM6.67318 -5.34766C4.86087 -5.34766 3.12278 -4.62772 1.84129 -3.34622C0.559784 -2.06472 -0.160156 -0.326636 -0.160156 1.48568V15.1523H6.67318V1.48568H20.3398V-5.34766H6.67318ZM75.0065 56.1523V69.819H61.3398L75.0065 76.6523C76.8188 76.6523 78.5569 75.9324 79.8384 74.6509C81.1199 73.3694 81.8398 71.6313 81.8398 69.819L75.0065 54.6668V56.1523ZM6.67318 69.819V56.1523V57.6378L-0.160156 69.819C-0.160156 71.6313 0.559784 73.3694 1.84129 74.6509C3.12278 75.9324 4.86087 76.6523 6.67318 76.6523L20.3398 69.819H6.67318Z" fill="#E3E4DB"/>
</g>
<defs>
<clipPath id="clip0_308_44">
<rect width="82" height="82" fill="white"/>
</clipPath>
</defs>
</svg>
