<svg width="113" height="113" viewBox="0 0 113 113" fill="none" xmlns="http://www.w3.org/2000/svg">
<g clip-path="url(#clip0_308_44)">
<path d="M93.944 11.4639H65.694V39.7139H93.944V11.4639ZM18.6107 11.4639V39.7139H46.8607V11.4639H18.6107ZM46.8607 63.2556H37.444V53.8389H46.8607V44.4223H37.444V53.8389H28.0273V44.4223H18.6107V53.8389H28.0273V63.2556H18.6107V77.3806H28.0273V86.7973H37.444L28.6607 85.9784L60.9857 67.9639L51.569 86.7973H60.9857V67.9639L28.6607 85.9784L46.8607 63.2556ZM37.444 63.2556L28.6607 85.9784L28.0273 77.3806V63.2556H37.444ZM93.944 86.7973V58.5473H65.694V86.7973H93.944ZM84.5273 20.8806V30.2973L65.694 39.7139L75.1107 20.8806H84.5273ZM46.8607 11.4639L37.444 30.2973H28.0273V20.8806L46.8607 11.4639ZM84.5273 67.9639V77.3806H75.1107L65.694 58.5473L84.5273 67.9639ZM93.944 44.4223H84.5273V53.8389H93.944V44.4223ZM70.4023 44.4223H51.569V63.2556H60.9857L51.569 44.4223L70.4023 53.8389V44.4223ZM60.9857 20.8806H51.569V39.7139H60.9857V20.8806ZM103.361 2.04728V20.8806H112.777V2.04728C112.777 -0.450173 111.785 -2.84534 110.019 -4.61131C108.253 -6.37727 105.858 -7.36938 103.361 -7.36938H84.5273V2.04728H103.361ZM9.19402 -7.36938C6.69656 -7.36938 4.30139 -6.37727 2.53542 -4.61131C0.769455 -2.84534 -0.222656 -0.450173 -0.222656 2.04728V20.8806H9.19402V2.04728H28.0273V-7.36938H9.19402ZM103.361 77.3806V96.2139H84.5273L103.361 105.631C105.858 105.631 108.253 104.639 110.019 102.873C111.785 101.107 112.777 98.7114 112.777 96.2139L103.361 75.3335V77.3806ZM9.19402 96.2139V77.3806V79.4277L-0.222656 96.2139C-0.222656 98.7114 0.769455 101.107 2.53542 102.873C4.30139 104.639 6.69656 105.631 9.19402 105.631L28.0273 96.2139H9.19402Z" fill="#E3E4DB"/>
</g>
<defs>
<clipPath id="clip0_308_44">
<rect width="113" height="113" fill="white"/>
</clipPath>
</defs>
</svg>
