<svg width="70" height="70" id="Layer_1" data-name="Layer 1" xmlns="http://www.w3.org/2000/svg" viewBox="0 0 177 80"><defs><style>.cls-1{fill:;}</style></defs><path class="cls-1" d="M18.67,18.94a16.95,16.95,0,0,0,0,33.89A16.14,16.14,0,0,0,26.08,51l1.13,1.19a2.94,2.94,0,0,0,2.28.9,3.18,3.18,0,0,0,3.18-3.18,3.14,3.14,0,0,0-.85-2.18L31.15,47a17,17,0,0,0-12.48-28ZM25.6,41.39l-1.8-1.85a3,3,0,0,0-2.28-1A3.15,3.15,0,0,0,19.29,44l1.14,1.19a7.25,7.25,0,0,1-1.76.19c-4.6,0-8.4-3.8-8.4-9.49s3.8-9.55,8.4-9.55S27,30.19,27,35.89A10.68,10.68,0,0,1,25.6,41.39Z"/><path class="cls-1" d="M168.86,13.38c2.43-3.76,4.33-7.23,5.56-9.63l-14.48,4a48.35,48.35,0,0,1,4.66,2.55A38.8,38.8,0,0,1,168.86,13.38Z"/><path class="cls-1" d="M169.76,14.16a25,25,0,0,1,4.37,5.05l1-14.32C173.88,7.32,172.05,10.62,169.76,14.16Z"/><path class="cls-1" d="M168.21,14.37a43.86,43.86,0,0,0-9.54-5.9l-5.39,19.8c-4.32,7.09-15.45,20.07-36.11,12.25C95.3,32.24,78,28.61,65.64,29.68c-.32-5.71-5-10.41-12.17-10.41H44.78a4.16,4.16,0,0,0-4.32,4.32V49a3.92,3.92,0,0,0,3.94,3.89A3.87,3.87,0,0,0,48.25,49V41.16H51.8l7.89,10.06a3.43,3.43,0,0,0,2.84,1.42A3.57,3.57,0,0,0,66.09,49a4,4,0,0,0-1-2.37L59.5,39.87a10.57,10.57,0,0,0,6.07-8.18c12-1.13,29.14,2.47,50.89,10.7a36.09,36.09,0,0,0,12.79,2.53c13.62,0,21.77-9.49,25.52-15.39C160.06,25.49,164.66,19.71,168.21,14.37ZM53,34.51H48.25V25.92H53c2.71,0,5.08.8,5.08,4.37S55.75,34.51,53,34.51Z"/><path class="cls-1" d="M169.11,15.14l-.44.66a63.37,63.37,0,0,1-12.43,14.08l17.4-9.26A22.86,22.86,0,0,0,169.11,15.14Z"/><path class="cls-1" d="M94.72,20.79a1,1,0,0,0,.24-.71.94.94,0,0,0-.91-.95,1.11,1.11,0,0,0-.71.33l-9.46,9.7c.74.12,1.49.24,2.26.38Z"/><path class="cls-1" d="M80.53,35.27,81.81,34q-1.2-.16-2.34-.27l-6.63,6.8v-7c-.69,0-1.35.07-2,.13V51.55a1.09,1.09,0,0,0,1,1.09,1.05,1.05,0,0,0,1-1V43.1l6.45-6.6,15,15.81a.93.93,0,0,0,.71.33,1,1,0,0,0,1-1,1.08,1.08,0,0,0-.28-.67Z"/><path class="cls-1" d="M72.84,20.17a1.05,1.05,0,0,0-1-1,1,1,0,0,0-1,1v8.41c.65,0,1.32-.09,2-.12Z"/><path class="cls-1" d="M102.17,20.13a1,1,0,0,0-1-1,1,1,0,0,0-1,1V33.07l1.94.61Z"/><path class="cls-1" d="M100.23,51.6a1,1,0,0,0,1,1,1,1,0,0,0,1-1V38.94l-1.94-.62Z"/><path class="cls-1" d="M106.35,21h9.49V38.42l1.86.7.09,0V21h9.45a.88.88,0,1,0,0-1.76H106.35a.85.85,0,0,0-.85.86A.86.86,0,0,0,106.35,21Z"/><path class="cls-1" d="M115.84,43.76V51.6a1,1,0,0,0,1,1,1,1,0,0,0,1-1V44.45q-.92-.3-1.86-.66Z"/><path class="cls-1" d="M134.41,36.65h9.33q1.11-.82,2.1-1.71H134.41V21.08H151.5a.91.91,0,0,0,0-1.81h-18a1,1,0,0,0-1.05,1.05v20.9c.69-.08,1.35-.2,2-.34Z"/><path class="cls-1" d="M152,50.7H134.41V46c-.65.11-1.32.2-2,.28v5.19a1,1,0,0,0,1.05,1H152a.9.9,0,1,0,0-1.8Z"/></svg>
