<svg width="69" height="69" viewBox="0 0 69 69" fill="none" xmlns="http://www.w3.org/2000/svg">
<g clip-path="url(#clip0_308_39)">
<path d="M57.5 11.5H40.25V28.75H57.5V11.5ZM11.5 11.5V28.75H28.75V11.5H11.5ZM28.75 43.125H23V37.375H28.75V31.625H23V37.375H17.25V31.625H11.5V37.375H17.25V43.125H11.5V51.75H17.25V57.5H23V51.75H31.625V57.5H37.375V46H28.75V43.125ZM23 43.125V51.75H17.25V43.125H23ZM57.5 57.5V40.25H40.25V57.5H57.5ZM51.75 17.25V23H46V17.25H51.75ZM23 17.25V23H17.25V17.25H23ZM51.75 46V51.75H46V46H51.75ZM57.5 31.625H51.75V37.375H57.5V31.625ZM43.125 31.625H31.625V43.125H37.375V37.375H43.125V31.625ZM37.375 17.25H31.625V28.75H37.375V17.25ZM63.25 5.75V17.25H69V5.75C69 4.22501 68.3942 2.76247 67.3159 1.68414C66.2375 0.605802 64.775 0 63.25 0L51.75 0V5.75H63.25ZM5.75 0C4.22501 0 2.76247 0.605802 1.68414 1.68414C0.605804 2.76247 0 4.22501 0 5.75V17.25H5.75V5.75H17.25V0H5.75ZM63.25 51.75V63.25H51.75V69H63.25C64.775 69 66.2375 68.3942 67.3159 67.3159C68.3942 66.2375 69 64.775 69 63.25V51.75H63.25ZM5.75 63.25V51.75H0V63.25C0 64.775 0.605804 66.2375 1.68414 67.3159C2.76247 68.3942 4.22501 69 5.75 69H17.25V63.25H5.75Z" fill="white"/>
</g>
<defs>
<clipPath id="clip0_308_39">
<rect width="69" height="69" fill="white"/>
</clipPath>
</defs>
</svg>
