<svg width="46" height="46" viewBox="0 0 46 46" fill="none" xmlns="http://www.w3.org/2000/svg">
<path d="M38.3333 7.66667H26.8333V19.1667H38.3333V7.66667ZM7.66667 7.66667V19.1667H19.1667V7.66667H7.66667ZM19.1667 28.75H15.3333V24.9167H19.1667V21.0833H15.3333V24.9167H11.5V21.0833H7.66667V24.9167H11.5V28.75H7.66667V34.5H11.5V38.3333H15.3333V34.5H21.0833V38.3333H24.9167V30.6667H19.1667V28.75ZM15.3333 28.75V34.5H11.5V28.75H15.3333ZM38.3333 38.3333V26.8333H26.8333V38.3333H38.3333ZM34.5 11.5V15.3333H30.6667V11.5H34.5ZM15.3333 11.5V15.3333H11.5V11.5H15.3333ZM34.5 30.6667V34.5H30.6667V30.6667H34.5ZM38.3333 21.0833H34.5V24.9167H38.3333V21.0833ZM28.75 21.0833H21.0833V28.75H24.9167V24.9167H28.75V21.0833ZM24.9167 11.5H21.0833V19.1667H24.9167V11.5ZM42.1667 3.83333V11.5H46V3.83333C46 2.81667 45.5961 1.84165 44.8772 1.12276C44.1584 0.403868 43.1833 0 42.1667 0L34.5 0V3.83333H42.1667ZM3.83333 0C2.81667 0 1.84165 0.403868 1.12276 1.12276C0.40387 1.84165 9.53674e-07 2.81667 9.53674e-07 3.83333V11.5H3.83333V3.83333H11.5V0H3.83333ZM42.1667 34.5V42.1667H34.5V46H42.1667C43.1833 46 44.1584 45.5961 44.8772 44.8772C45.5961 44.1584 46 43.1833 46 42.1667V34.5H42.1667ZM3.83333 42.1667V34.5H9.53674e-07V42.1667C9.53674e-07 43.1833 0.40387 44.1584 1.12276 44.8772C1.84165 45.5961 2.81667 46 3.83333 46H11.5V42.1667H3.83333Z" fill="white"/>
</svg>
